<?xml version="1.0" encoding="utf-8"?>
<!-- Generator: Adobe Illustrator 19.1.0, SVG Export Plug-In . SVG Version: 6.00 Build 0)  -->
<svg version="1.1" id="Layer_1" xmlns="http://www.w3.org/2000/svg" xmlns:xlink="http://www.w3.org/1999/xlink" x="0px" y="0px"
	 viewBox="-219 251 1000 400" style="enable-background:new -219 251 1000 400;" xml:space="preserve">
<style type="text/css">
	.st0{opacity:7.000000e-02;fill:#1F70C1;}
</style>
<path class="st0" d="M-219,251v27.4h194.6V251H-219z M3.2,251v27.4h277.4c0,0-28.3-27.4-65.9-27.4H3.2z M335,251v27.4h167.8
	l-10-27.4H335z M623.1,251l-10,27.4h166.3V251H623.1z M-219,304.2v27.4h194.6v-27.4H-219z M3.2,304.3v27.3h309.6
	c0,0-3.6-21.1-9.9-27.3H3.2z M335,304.3v27.3h186.2l-9.2-27.3H335z M603.2,304.3l-9.2,27.3h185.5v-27.3H603.2z M-163.1,357.4v27.4
	h84.3v-27.4H-163.1z M59.2,357.4v27.4h84.3v-27.4H59.2z M225.5,357.4v27.4h84.3c0,0,5.4-14.5,5.4-27.4H225.5z M391,357.4v27.4h149.5
	l-10-27.4H391z M584.9,357.4l-10,27.4h150.2v-27.4H584.9z M-163.1,410.7v27.4h84.3v-27.4H-163.1z M59.2,410.7v27.4h215.3
	c0,0,18-14,23.8-27.4H59.2z M391,410.7v27.4h84.3v-15.2l5.4,15.2H635l5.7-15.2v15.2h84.3v-27.4H566.8l-8.4,23.2l-8.4-23.2H391z
	 M-163.1,463.9v27.4h84.3v-27.4H-163.1z M59.2,463.9v27.4h239.1c-5.7-13.3-23.8-27.4-23.8-27.4H59.2z M391,463.9v27.4h84.3v-27.4
	H391z M490.6,463.9l10.2,27.4h115.8l9.7-27.4H490.6z M640.8,463.9v27.4h84.3v-27.4H640.8z M-163.1,517.1v27.4h84.3v-27.4H-163.1z
	 M59.2,517.1v27.4h84.3v-27.4H59.2z M225.5,517.1v27.4h89.6c0-12.9-5.4-27.4-5.4-27.4H225.5z M391,517.1v27.4h84.3v-27.4H391z
	 M509.7,517.1l9.9,27.4h77.6l10-27.4H509.7z M640.8,517.1v27.4h84.3v-27.4H640.8z M-217.5,570.4v27.4h194.6v-27.4H-217.5z
	 M3.2,570.4v27.4h299.6c6.3-6.3,9.9-27.4,9.9-27.4H3.2z M336.5,570.4v27.4h138.7v-27.4H336.5z M528.9,570.4l10.2,27.4h39.5l9.5-27.4
	H528.9z M640.8,570.4v27.4H781v-27.4H640.8z M-217.5,623.6V651h194.6v-27.4H-217.5z M3.2,623.6V651h211.5
	c37.5,0,65.9-27.3,65.9-27.3H3.2z M336.5,623.6V651h138.7v-27.4H336.5z M548.1,623.6l9.8,27.3l1.7,0l9.9-27.3H548.1z M640.8,623.6
	V651H781v-27.4H640.8z"/>
</svg>
